<svg width="18" height="18" viewBox="0 0 18 18" fill="none" xmlns="http://www.w3.org/2000/svg">
<path d="M9 16.5001C13.1422 16.5001 16.5 13.1424 16.5 9.00012C16.5 4.85787 13.1422 1.50012 9 1.50012C4.85775 1.50012 1.5 4.85787 1.5 9.00012C1.5 13.1424 4.85775 16.5001 9 16.5001Z" stroke="#999999" stroke-width="1.5" stroke-linecap="round" stroke-linejoin="round"/>
<path d="M1.50012 9.00012H16.5001" stroke="#999999" stroke-width="1.5" stroke-linecap="round" stroke-linejoin="round"/>
<path d="M9.00012 16.5002C10.6569 16.5002 12.0001 13.1425 12.0001 9.00024C12.0001 4.85799 10.6569 1.50024 9.00012 1.50024C7.34337 1.50024 6.00012 4.85799 6.00012 9.00024C6.00012 13.1425 7.34337 16.5002 9.00012 16.5002Z" stroke="#999999" stroke-width="1.5" stroke-linecap="round" stroke-linejoin="round"/>
<path d="M3.69678 3.80359C4.39243 4.50108 5.21906 5.05421 6.12918 5.43121C7.03929 5.8082 8.01493 6.00162 9.00003 6.00034V6.00034C9.98513 6.00162 10.9608 5.8082 11.8709 5.43121C12.781 5.05421 13.6076 4.50108 14.3033 3.80359" stroke="#999999" stroke-width="1.5" stroke-linecap="round" stroke-linejoin="round"/>
<path d="M14.3033 14.1971C13.6076 13.4996 12.781 12.9465 11.8709 12.5695C10.9608 12.1925 9.98513 11.9991 9.00003 12.0004C8.01493 11.9991 7.03929 12.1925 6.12918 12.5695C5.21906 12.9465 4.39243 13.4996 3.69678 14.1971" stroke="#999999" stroke-width="1.5" stroke-linecap="round" stroke-linejoin="round"/>
</svg>
